<svg id="afb41549-c570-49b7-85cd-657600edf2e1" data-name="Layer 1" xmlns="http://www.w3.org/2000/svg" viewBox="0 0 721.15 721.15">
  <defs>
    <style>
      .a448fdea-4a4c-4678-976a-c3785308ae06 {
        fill: #db3927;
      }

      .e13308b8-7485-4cb0-9765-8a57b93f91a6 {
        fill: #cb3728;
      }

      .e77286f1-22da-44d1-8efb-1d14b0ccae62 {
        fill: #fff;
      }

      .a0420cac-ebe6-4c18-b981-abba0ba9b365 {
        fill: #e5e5e4;
      }
    </style>
  </defs>
  <circle class="a448fdea-4a4c-4678-976a-c3785308ae06" cx="360.58" cy="360.58" r="358.28"/>
  <path class="e13308b8-7485-4cb0-9765-8a57b93f91a6" d="M613.54,107.3,106.88,614c140,138.51,365.82,138.06,505.26-1.39S752,247.33,613.54,107.3Z"/>
  <g>
    <circle class="e77286f1-22da-44d1-8efb-1d14b0ccae62" cx="234.7" cy="357.3" r="47.72"/>
    <circle class="e77286f1-22da-44d1-8efb-1d14b0ccae62" cx="234.7" cy="182.94" r="47.72"/>
    <circle class="e77286f1-22da-44d1-8efb-1d14b0ccae62" cx="234.7" cy="538.21" r="47.72"/>
  </g>
  <polygon class="e77286f1-22da-44d1-8efb-1d14b0ccae62" points="435.19 347.3 390.54 347.3 390.54 172.94 316.16 172.94 316.16 192.94 370.54 192.94 370.54 347.3 316.16 347.3 316.16 367.3 370.54 367.3 370.54 521.67 316.16 521.67 316.16 541.67 390.54 541.67 390.54 367.3 435.19 367.3 435.19 347.3"/>
  <polygon class="e77286f1-22da-44d1-8efb-1d14b0ccae62" points="599.74 317.03 557.97 317.03 550.97 317.03 550.97 310.03 550.97 268.26 550.97 268.26 464.36 268.26 464.36 446.34 599.74 446.34 599.74 317.03 599.74 317.03"/>
  <polygon class="a0420cac-ebe6-4c18-b981-abba0ba9b365" points="599.74 310.03 557.97 268.26 557.97 310.03 599.74 310.03"/>
</svg>
